<?xml version="1.0" encoding="utf-8"?>
<!-- Generator: Adobe Illustrator 22.0.1, SVG Export Plug-In . SVG Version: 6.00 Build 0)  -->
<svg version="1.1" id="Layer_1" xmlns="http://www.w3.org/2000/svg" xmlns:xlink="http://www.w3.org/1999/xlink" x="0px" y="0px"
	 viewBox="0 0 510 90" style="enable-background:new 0 0 510 90;" xml:space="preserve">
<style type="text/css">
	.st0{fill:#002E5A;}
	.st1{fill:#CB0935;}
</style>
<g>
	<g>
		<line class="st0" x1="321.5" y1="1" x2="321.5" y2="89.6"/>
		<rect x="320.9" y="1" class="st0" width="1.3" height="88.6"/>
	</g>
	<g>
		<path class="st0" d="M357.7,36.6c0,2.3-0.6,3.9-1.9,5c-1.3,1.1-3.1,1.7-5.4,1.7c-0.8,0-1.5-0.1-2.3-0.2c-0.8-0.2-1.5-0.4-2.1-0.8
			c-0.6-0.4-1.2-0.8-1.6-1.4c-0.4-0.6-0.7-1.3-0.8-2.2h3.3c0.1,0.5,0.3,0.8,0.5,1.1c0.2,0.3,0.5,0.5,0.8,0.7
			c0.3,0.2,0.7,0.3,1.1,0.3c0.4,0,0.8,0.1,1.2,0.1c1.3,0,2.3-0.3,2.9-1c0.6-0.7,0.9-1.6,0.9-2.8v-2.3h-0.1c-0.5,0.8-1.1,1.5-1.9,1.9
			c-0.8,0.5-1.7,0.7-2.6,0.7c-1.2,0-2.2-0.2-3-0.6c-0.8-0.4-1.5-1-2.1-1.7s-0.9-1.6-1.2-2.5c-0.3-0.9-0.4-2-0.4-3c0-1,0.2-2,0.5-2.9
			c0.3-0.9,0.8-1.7,1.3-2.4c0.6-0.7,1.3-1.2,2.1-1.6c0.8-0.4,1.8-0.6,2.8-0.6c0.9,0,1.8,0.2,2.6,0.6c0.8,0.4,1.4,1,1.8,1.9h0.1v-2
			h3.3V36.6z M350.3,34.8c0.7,0,1.4-0.1,1.9-0.4c0.5-0.3,0.9-0.7,1.2-1.2c0.3-0.5,0.5-1,0.7-1.7c0.1-0.6,0.2-1.3,0.2-1.9
			s-0.1-1.3-0.2-1.8c-0.2-0.6-0.4-1.1-0.7-1.6c-0.3-0.5-0.7-0.8-1.2-1.1c-0.5-0.3-1.1-0.4-1.8-0.4c-0.7,0-1.3,0.2-1.8,0.5
			c-0.5,0.3-0.9,0.7-1.2,1.2c-0.3,0.5-0.5,1-0.7,1.7c-0.1,0.6-0.2,1.2-0.2,1.9c0,0.6,0.1,1.2,0.2,1.8c0.2,0.6,0.4,1.1,0.7,1.6
			c0.3,0.5,0.7,0.8,1.2,1.1C349.1,34.7,349.7,34.8,350.3,34.8z"/>
		<path class="st0" d="M360.4,16.8h3.3v3.1h-3.3V16.8z M360.4,22.5h3.3v14.9h-3.3V22.5z"/>
		<path class="st0" d="M379,34.1c0,0.4,0.1,0.7,0.2,0.9c0.1,0.2,0.3,0.3,0.6,0.3c0.1,0,0.2,0,0.3,0c0.1,0,0.3,0,0.5-0.1v2.3
			c-0.1,0-0.3,0.1-0.4,0.1c-0.2,0-0.4,0.1-0.6,0.1c-0.2,0-0.4,0.1-0.6,0.1c-0.2,0-0.4,0-0.5,0c-0.7,0-1.2-0.1-1.7-0.4
			c-0.4-0.3-0.7-0.7-0.9-1.4c-0.7,0.6-1.5,1.1-2.4,1.4s-1.9,0.4-2.8,0.4c-0.7,0-1.3-0.1-1.9-0.3c-0.6-0.2-1.2-0.5-1.6-0.8
			c-0.5-0.4-0.8-0.8-1.1-1.4c-0.3-0.5-0.4-1.2-0.4-1.9c0-0.9,0.2-1.7,0.5-2.3c0.3-0.6,0.8-1,1.3-1.4c0.5-0.3,1.2-0.6,1.8-0.7
			c0.7-0.1,1.4-0.3,2.1-0.3c0.6-0.1,1.2-0.2,1.7-0.2c0.5,0,1-0.1,1.4-0.2c0.4-0.1,0.7-0.3,1-0.5c0.2-0.2,0.4-0.6,0.4-1.1
			c0-0.4-0.1-0.8-0.3-1c-0.2-0.3-0.5-0.5-0.8-0.6c-0.3-0.1-0.6-0.2-1-0.3c-0.4,0-0.7-0.1-1-0.1c-0.9,0-1.7,0.2-2.3,0.6
			c-0.6,0.4-0.9,1-1,1.8h-3.3c0.1-1,0.3-1.8,0.7-2.4c0.4-0.6,0.9-1.1,1.5-1.5c0.6-0.4,1.3-0.7,2.1-0.8c0.8-0.2,1.6-0.2,2.4-0.2
			c0.7,0,1.5,0.1,2.2,0.2c0.7,0.2,1.4,0.4,1.9,0.8c0.6,0.3,1,0.8,1.4,1.3c0.3,0.5,0.5,1.2,0.5,2V34.1z M375.8,29.9
			c-0.5,0.3-1.1,0.5-1.8,0.6c-0.7,0.1-1.5,0.2-2.2,0.3c-0.3,0.1-0.7,0.1-1,0.2c-0.3,0.1-0.6,0.3-0.9,0.4c-0.3,0.2-0.4,0.4-0.6,0.7
			c-0.1,0.3-0.2,0.7-0.2,1.1c0,0.4,0.1,0.7,0.3,0.9c0.2,0.3,0.5,0.4,0.8,0.6c0.3,0.1,0.6,0.2,1,0.3c0.4,0.1,0.7,0.1,1,0.1
			c0.4,0,0.8,0,1.2-0.1c0.4-0.1,0.8-0.3,1.2-0.5c0.4-0.2,0.7-0.5,0.9-0.9c0.2-0.4,0.4-0.8,0.4-1.3V29.9z"/>
		<path class="st0" d="M381.9,22.5h3.1v2.2l0.1,0.1c0.5-0.8,1.2-1.5,2-1.9c0.8-0.5,1.7-0.7,2.7-0.7c1.6,0,2.9,0.4,3.9,1.3
			c0.9,0.8,1.4,2.1,1.4,3.8v10.2h-3.3V28c0-1.2-0.3-2-0.8-2.6c-0.5-0.5-1.2-0.8-2.2-0.8c-0.6,0-1.1,0.1-1.5,0.3
			c-0.4,0.2-0.8,0.5-1.1,0.8c-0.3,0.4-0.5,0.8-0.7,1.3c-0.2,0.5-0.3,1-0.3,1.5v8.8h-3.3V22.5z"/>
		<path class="st0" d="M396.3,22.5h2.5V18h3.3v4.5h3v2.5h-3v8c0,0.3,0,0.6,0,0.9c0,0.3,0.1,0.5,0.2,0.6c0.1,0.2,0.3,0.3,0.5,0.4
			c0.2,0.1,0.5,0.1,0.9,0.1c0.2,0,0.5,0,0.7,0c0.2,0,0.5,0,0.7-0.1v2.5c-0.4,0-0.7,0.1-1.1,0.1c-0.3,0-0.7,0.1-1.1,0.1
			c-0.9,0-1.6-0.1-2.1-0.2c-0.5-0.2-0.9-0.4-1.2-0.7c-0.3-0.3-0.5-0.7-0.6-1.2c-0.1-0.5-0.2-1-0.2-1.6v-8.8h-2.5V22.5z"/>
		<path class="st0" d="M424.1,27.5c-0.1-0.9-0.5-1.6-1.1-2.1c-0.6-0.5-1.4-0.7-2.3-0.7c-0.4,0-0.9,0.1-1.4,0.2
			c-0.5,0.1-0.9,0.4-1.3,0.8c-0.4,0.4-0.7,0.9-1,1.6c-0.3,0.7-0.4,1.6-0.4,2.8c0,0.6,0.1,1.2,0.2,1.8c0.1,0.6,0.4,1.2,0.7,1.6
			s0.7,0.9,1.2,1.2c0.5,0.3,1.1,0.4,1.8,0.4c1,0,1.8-0.3,2.4-0.9c0.6-0.6,1-1.4,1.2-2.5h3.3c-0.3,1.9-1,3.4-2.2,4.5
			c-1.2,1-2.7,1.5-4.6,1.5c-1.2,0-2.2-0.2-3.1-0.6c-0.9-0.4-1.7-0.9-2.3-1.6c-0.6-0.7-1.1-1.5-1.4-2.4c-0.3-0.9-0.5-2-0.5-3.1
			c0-1.1,0.2-2.2,0.5-3.1c0.3-1,0.8-1.8,1.4-2.6c0.6-0.7,1.4-1.3,2.3-1.7c0.9-0.4,2-0.6,3.2-0.6c0.9,0,1.7,0.1,2.5,0.3
			c0.8,0.2,1.5,0.6,2.1,1c0.6,0.4,1.1,1,1.5,1.7c0.4,0.7,0.6,1.5,0.7,2.4H424.1z"/>
		<path class="st0" d="M429.4,16.8h3.3v7.6h0.1c0.4-0.7,1-1.2,1.8-1.7c0.8-0.5,1.7-0.7,2.7-0.7c1.6,0,2.9,0.4,3.9,1.3
			c0.9,0.8,1.4,2.1,1.4,3.8v10.2h-3.3V28c0-1.2-0.3-2-0.8-2.6c-0.5-0.5-1.2-0.8-2.2-0.8c-0.6,0-1.1,0.1-1.5,0.3
			c-0.4,0.2-0.8,0.5-1.1,0.8c-0.3,0.4-0.5,0.8-0.7,1.3c-0.2,0.5-0.3,1-0.3,1.5v8.8h-3.3V16.8z"/>
		<path class="st0" d="M452.1,37.8c-1.2,0-2.3-0.2-3.2-0.6c-0.9-0.4-1.7-0.9-2.4-1.6c-0.6-0.7-1.1-1.5-1.5-2.5c-0.3-1-0.5-2-0.5-3.2
			c0-1.1,0.2-2.2,0.5-3.1c0.3-1,0.8-1.8,1.5-2.5c0.6-0.7,1.4-1.2,2.4-1.6c0.9-0.4,2-0.6,3.2-0.6c1.2,0,2.3,0.2,3.2,0.6
			c0.9,0.4,1.7,0.9,2.4,1.6c0.6,0.7,1.1,1.5,1.5,2.5c0.3,1,0.5,2,0.5,3.1c0,1.2-0.2,2.2-0.5,3.2c-0.3,1-0.8,1.8-1.5,2.5
			c-0.6,0.7-1.4,1.2-2.4,1.6C454.4,37.6,453.3,37.8,452.1,37.8z M452.1,35.2c0.7,0,1.4-0.2,1.9-0.5c0.5-0.3,1-0.7,1.3-1.2
			c0.3-0.5,0.6-1.1,0.8-1.7c0.2-0.6,0.2-1.3,0.2-1.9c0-0.6-0.1-1.3-0.2-1.9c-0.2-0.6-0.4-1.2-0.8-1.7c-0.3-0.5-0.8-0.9-1.3-1.2
			c-0.5-0.3-1.2-0.5-1.9-0.5c-0.7,0-1.4,0.2-1.9,0.5c-0.5,0.3-1,0.7-1.3,1.2c-0.3,0.5-0.6,1.1-0.8,1.7c-0.2,0.6-0.2,1.3-0.2,1.9
			c0,0.7,0.1,1.3,0.2,1.9c0.2,0.6,0.4,1.2,0.8,1.7c0.3,0.5,0.8,0.9,1.3,1.2C450.7,35.1,451.4,35.2,452.1,35.2z"/>
		<path class="st0" d="M461.8,16.8h3.3v3.1h-3.3V16.8z M461.8,22.5h3.3v14.9h-3.3V22.5z"/>
		<path class="st0" d="M478,27.5c-0.1-0.9-0.5-1.6-1.1-2.1c-0.6-0.5-1.4-0.7-2.3-0.7c-0.4,0-0.9,0.1-1.4,0.2
			c-0.5,0.1-0.9,0.4-1.3,0.8c-0.4,0.4-0.7,0.9-1,1.6c-0.3,0.7-0.4,1.6-0.4,2.8c0,0.6,0.1,1.2,0.2,1.8c0.1,0.6,0.4,1.2,0.7,1.6
			s0.7,0.9,1.2,1.2c0.5,0.3,1.1,0.4,1.8,0.4c1,0,1.8-0.3,2.4-0.9c0.6-0.6,1-1.4,1.2-2.5h3.3c-0.3,1.9-1,3.4-2.2,4.5
			c-1.2,1-2.7,1.5-4.6,1.5c-1.2,0-2.2-0.2-3.1-0.6c-0.9-0.4-1.7-0.9-2.3-1.6c-0.6-0.7-1.1-1.5-1.4-2.4c-0.3-0.9-0.5-2-0.5-3.1
			c0-1.1,0.2-2.2,0.5-3.1c0.3-1,0.8-1.8,1.4-2.6c0.6-0.7,1.4-1.3,2.3-1.7c0.9-0.4,2-0.6,3.2-0.6c0.9,0,1.7,0.1,2.5,0.3
			c0.8,0.2,1.5,0.6,2.1,1c0.6,0.4,1.1,1,1.5,1.7c0.4,0.7,0.6,1.5,0.7,2.4H478z"/>
		<path class="st0" d="M485.9,30.8c0,0.6,0.1,1.1,0.2,1.7c0.2,0.5,0.4,1,0.7,1.4c0.3,0.4,0.7,0.7,1.2,1c0.5,0.2,1.1,0.4,1.8,0.4
			c1,0,1.7-0.2,2.3-0.6c0.6-0.4,1-1,1.3-1.9h3.1c-0.2,0.8-0.5,1.5-0.9,2.2c-0.4,0.6-0.9,1.2-1.5,1.6c-0.6,0.4-1.3,0.8-2,1
			c-0.7,0.2-1.5,0.3-2.3,0.3c-1.2,0-2.2-0.2-3.1-0.6c-0.9-0.4-1.7-0.9-2.3-1.6c-0.6-0.7-1.1-1.5-1.4-2.5c-0.3-1-0.5-2-0.5-3.2
			c0-1.1,0.2-2.1,0.5-3c0.3-1,0.8-1.8,1.4-2.5c0.6-0.7,1.4-1.3,2.3-1.7c0.9-0.4,1.9-0.6,3-0.6c1.2,0,2.2,0.2,3.2,0.7
			c0.9,0.5,1.7,1.1,2.3,1.9c0.6,0.8,1.1,1.7,1.3,2.8c0.3,1,0.4,2.1,0.2,3.2H485.9z M493.6,28.6c0-0.5-0.1-1-0.3-1.5
			c-0.2-0.5-0.4-0.9-0.8-1.3c-0.3-0.4-0.7-0.6-1.2-0.9c-0.5-0.2-1-0.3-1.5-0.3c-0.6,0-1.1,0.1-1.6,0.3c-0.5,0.2-0.9,0.5-1.2,0.8
			c-0.3,0.4-0.6,0.8-0.8,1.3c-0.2,0.5-0.3,1-0.3,1.6H493.6z"/>
		<path class="st0" d="M357.7,68.9c0,2.3-0.6,3.9-1.9,5c-1.3,1.1-3.1,1.7-5.4,1.7c-0.8,0-1.5-0.1-2.3-0.2c-0.8-0.2-1.5-0.4-2.1-0.8
			c-0.6-0.4-1.2-0.8-1.6-1.4c-0.4-0.6-0.7-1.3-0.8-2.2h3.3c0.1,0.5,0.3,0.8,0.5,1.1c0.2,0.3,0.5,0.5,0.8,0.7
			c0.3,0.2,0.7,0.3,1.1,0.3c0.4,0,0.8,0.1,1.2,0.1c1.3,0,2.3-0.3,2.9-1c0.6-0.7,0.9-1.6,0.9-2.8v-2.3h-0.1c-0.5,0.8-1.1,1.5-1.9,1.9
			c-0.8,0.5-1.7,0.7-2.6,0.7c-1.2,0-2.2-0.2-3-0.6c-0.8-0.4-1.5-1-2.1-1.7s-0.9-1.6-1.2-2.5c-0.3-0.9-0.4-2-0.4-3c0-1,0.2-2,0.5-2.9
			c0.3-0.9,0.8-1.7,1.3-2.4c0.6-0.7,1.3-1.2,2.1-1.6c0.8-0.4,1.8-0.6,2.8-0.6c0.9,0,1.8,0.2,2.6,0.6c0.8,0.4,1.4,1,1.8,1.9h0.1v-2
			h3.3V68.9z M350.3,67.1c0.7,0,1.4-0.1,1.9-0.4c0.5-0.3,0.9-0.7,1.2-1.2c0.3-0.5,0.5-1,0.7-1.7c0.1-0.6,0.2-1.3,0.2-1.9
			s-0.1-1.3-0.2-1.8c-0.2-0.6-0.4-1.1-0.7-1.6c-0.3-0.5-0.7-0.8-1.2-1.1c-0.5-0.3-1.1-0.4-1.8-0.4c-0.7,0-1.3,0.2-1.8,0.5
			c-0.5,0.3-0.9,0.7-1.2,1.2c-0.3,0.5-0.5,1-0.7,1.7c-0.1,0.6-0.2,1.2-0.2,1.9c0,0.6,0.1,1.2,0.2,1.8c0.2,0.6,0.4,1.1,0.7,1.6
			c0.3,0.5,0.7,0.8,1.2,1.1C349.1,67,349.7,67.1,350.3,67.1z"/>
		<path class="st0" d="M360.4,49.1h3.3v3.1h-3.3V49.1z M360.4,54.8h3.3v14.9h-3.3V54.8z"/>
		<path class="st0" d="M379,66.4c0,0.4,0.1,0.7,0.2,0.9c0.1,0.2,0.3,0.3,0.6,0.3c0.1,0,0.2,0,0.3,0c0.1,0,0.3,0,0.5-0.1v2.3
			c-0.1,0-0.3,0.1-0.4,0.1c-0.2,0-0.4,0.1-0.6,0.1c-0.2,0-0.4,0.1-0.6,0.1c-0.2,0-0.4,0-0.5,0c-0.7,0-1.2-0.1-1.7-0.4
			c-0.4-0.3-0.7-0.7-0.9-1.4c-0.7,0.6-1.5,1.1-2.4,1.4c-1,0.3-1.9,0.4-2.8,0.4c-0.7,0-1.3-0.1-1.9-0.3c-0.6-0.2-1.2-0.5-1.6-0.8
			c-0.5-0.4-0.8-0.8-1.1-1.4c-0.3-0.5-0.4-1.2-0.4-1.9c0-0.9,0.2-1.7,0.5-2.3c0.3-0.6,0.8-1,1.3-1.4c0.5-0.3,1.2-0.6,1.8-0.7
			c0.7-0.1,1.4-0.3,2.1-0.3c0.6-0.1,1.2-0.2,1.7-0.2c0.5,0,1-0.1,1.4-0.2c0.4-0.1,0.7-0.3,1-0.5c0.2-0.2,0.4-0.6,0.4-1.1
			c0-0.4-0.1-0.8-0.3-1c-0.2-0.3-0.5-0.5-0.8-0.6c-0.3-0.1-0.6-0.2-1-0.3c-0.4,0-0.7-0.1-1-0.1c-0.9,0-1.7,0.2-2.3,0.6
			c-0.6,0.4-0.9,1-1,1.8h-3.3c0.1-1,0.3-1.8,0.7-2.4c0.4-0.6,0.9-1.1,1.5-1.5c0.6-0.4,1.3-0.7,2.1-0.8c0.8-0.2,1.6-0.2,2.4-0.2
			c0.7,0,1.5,0.1,2.2,0.2c0.7,0.2,1.4,0.4,1.9,0.8c0.6,0.3,1,0.8,1.4,1.3c0.3,0.5,0.5,1.2,0.5,2V66.4z M375.8,62.2
			c-0.5,0.3-1.1,0.5-1.8,0.6c-0.7,0.1-1.5,0.2-2.2,0.3c-0.3,0.1-0.7,0.1-1,0.2c-0.3,0.1-0.6,0.3-0.9,0.4c-0.3,0.2-0.4,0.4-0.6,0.7
			c-0.1,0.3-0.2,0.7-0.2,1.1c0,0.4,0.1,0.7,0.3,0.9c0.2,0.3,0.5,0.4,0.8,0.6c0.3,0.1,0.6,0.2,1,0.3c0.4,0.1,0.7,0.1,1,0.1
			c0.4,0,0.8,0,1.2-0.1c0.4-0.1,0.8-0.3,1.2-0.5c0.4-0.2,0.7-0.5,0.9-0.9c0.2-0.4,0.4-0.8,0.4-1.3V62.2z"/>
		<path class="st0" d="M381.9,54.8h3.1V57l0.1,0.1c0.5-0.8,1.2-1.5,2-1.9c0.8-0.5,1.7-0.7,2.7-0.7c1.6,0,2.9,0.4,3.9,1.3
			c0.9,0.8,1.4,2.1,1.4,3.8v10.2h-3.3v-9.4c0-1.2-0.3-2-0.8-2.6c-0.5-0.5-1.2-0.8-2.2-0.8c-0.6,0-1.1,0.1-1.5,0.3
			c-0.4,0.2-0.8,0.5-1.1,0.8c-0.3,0.4-0.5,0.8-0.7,1.3c-0.2,0.5-0.3,1-0.3,1.5v8.8h-3.3V54.8z"/>
		<path class="st0" d="M396.3,54.8h2.5v-4.5h3.3v4.5h3v2.5h-3v8c0,0.3,0,0.6,0,0.9c0,0.3,0.1,0.5,0.2,0.6c0.1,0.2,0.3,0.3,0.5,0.4
			c0.2,0.1,0.5,0.1,0.9,0.1c0.2,0,0.5,0,0.7,0c0.2,0,0.5,0,0.7-0.1v2.5c-0.4,0-0.7,0.1-1.1,0.1c-0.3,0-0.7,0.1-1.1,0.1
			c-0.9,0-1.6-0.1-2.1-0.2c-0.5-0.2-0.9-0.4-1.2-0.7c-0.3-0.3-0.5-0.7-0.6-1.2c-0.1-0.5-0.2-1-0.2-1.6v-8.8h-2.5V54.8z"/>
		<path class="st0" d="M416.5,64.9c0.1,1,0.5,1.6,1.1,2c0.6,0.4,1.4,0.6,2.3,0.6c0.3,0,0.7,0,1.1-0.1c0.4,0,0.8-0.1,1.1-0.3
			c0.3-0.1,0.6-0.3,0.9-0.6c0.2-0.3,0.3-0.6,0.3-1c0-0.4-0.2-0.8-0.5-1c-0.3-0.3-0.7-0.5-1.1-0.6c-0.5-0.2-1-0.3-1.5-0.4
			s-1.2-0.2-1.8-0.4c-0.6-0.1-1.2-0.3-1.8-0.5c-0.6-0.2-1.1-0.5-1.5-0.8c-0.5-0.3-0.8-0.7-1.1-1.3c-0.3-0.5-0.4-1.1-0.4-1.9
			c0-0.8,0.2-1.5,0.6-2c0.4-0.5,0.9-1,1.5-1.3c0.6-0.3,1.3-0.6,2-0.7c0.7-0.1,1.4-0.2,2.1-0.2c0.8,0,1.5,0.1,2.2,0.2
			c0.7,0.2,1.3,0.4,1.9,0.8c0.6,0.4,1,0.8,1.4,1.4c0.4,0.6,0.6,1.3,0.7,2.1h-3.4c-0.2-0.8-0.5-1.3-1.1-1.6c-0.6-0.3-1.2-0.4-1.9-0.4
			c-0.2,0-0.5,0-0.8,0.1c-0.3,0-0.6,0.1-0.9,0.2c-0.3,0.1-0.5,0.3-0.7,0.5c-0.2,0.2-0.3,0.5-0.3,0.8c0,0.4,0.1,0.7,0.4,1
			c0.3,0.3,0.6,0.5,1.1,0.6c0.5,0.2,1,0.3,1.5,0.4c0.6,0.1,1.2,0.2,1.8,0.4c0.6,0.1,1.2,0.3,1.8,0.5s1.1,0.5,1.5,0.8
			c0.5,0.3,0.8,0.7,1.1,1.2s0.4,1.1,0.4,1.8c0,0.9-0.2,1.6-0.6,2.3c-0.4,0.6-0.9,1.1-1.6,1.5c-0.6,0.4-1.4,0.7-2.2,0.8
			c-0.8,0.2-1.6,0.3-2.3,0.3c-0.9,0-1.8-0.1-2.6-0.3c-0.8-0.2-1.5-0.5-2.1-1c-0.6-0.4-1-1-1.4-1.6c-0.3-0.6-0.5-1.4-0.5-2.3H416.5z"
			/>
		<path class="st0" d="M440.8,66.4c0,0.4,0.1,0.7,0.2,0.9c0.1,0.2,0.3,0.3,0.6,0.3c0.1,0,0.2,0,0.3,0c0.1,0,0.3,0,0.5-0.1v2.3
			c-0.1,0-0.3,0.1-0.4,0.1c-0.2,0-0.4,0.1-0.6,0.1c-0.2,0-0.4,0.1-0.6,0.1c-0.2,0-0.4,0-0.5,0c-0.7,0-1.2-0.1-1.7-0.4
			c-0.4-0.3-0.7-0.7-0.9-1.4c-0.7,0.6-1.5,1.1-2.4,1.4c-1,0.3-1.9,0.4-2.8,0.4c-0.7,0-1.3-0.1-1.9-0.3c-0.6-0.2-1.2-0.5-1.6-0.8
			c-0.5-0.4-0.8-0.8-1.1-1.4c-0.3-0.5-0.4-1.2-0.4-1.9c0-0.9,0.2-1.7,0.5-2.3c0.3-0.6,0.8-1,1.3-1.4c0.5-0.3,1.2-0.6,1.8-0.7
			c0.7-0.1,1.4-0.3,2.1-0.3c0.6-0.1,1.2-0.2,1.7-0.2c0.5,0,1-0.1,1.4-0.2c0.4-0.1,0.7-0.3,1-0.5c0.2-0.2,0.4-0.6,0.4-1.1
			c0-0.4-0.1-0.8-0.3-1c-0.2-0.3-0.5-0.5-0.8-0.6c-0.3-0.1-0.6-0.2-1-0.3c-0.4,0-0.7-0.1-1-0.1c-0.9,0-1.7,0.2-2.3,0.6
			c-0.6,0.4-0.9,1-1,1.8h-3.3c0.1-1,0.3-1.8,0.7-2.4c0.4-0.6,0.9-1.1,1.5-1.5c0.6-0.4,1.3-0.7,2.1-0.8c0.8-0.2,1.6-0.2,2.4-0.2
			c0.7,0,1.5,0.1,2.2,0.2c0.7,0.2,1.4,0.4,1.9,0.8c0.6,0.3,1,0.8,1.4,1.3c0.3,0.5,0.5,1.2,0.5,2V66.4z M437.5,62.2
			c-0.5,0.3-1.1,0.5-1.8,0.6c-0.7,0.1-1.5,0.2-2.2,0.3c-0.3,0.1-0.7,0.1-1,0.2c-0.3,0.1-0.6,0.3-0.9,0.4c-0.3,0.2-0.4,0.4-0.6,0.7
			c-0.1,0.3-0.2,0.7-0.2,1.1c0,0.4,0.1,0.7,0.3,0.9c0.2,0.3,0.5,0.4,0.8,0.6c0.3,0.1,0.6,0.2,1,0.3c0.4,0.1,0.7,0.1,1,0.1
			c0.4,0,0.8,0,1.2-0.1c0.4-0.1,0.8-0.3,1.2-0.5c0.4-0.2,0.7-0.5,0.9-0.9c0.2-0.4,0.4-0.8,0.4-1.3V62.2z"/>
		<path class="st0" d="M442.2,54.8h3.6l3.8,11.5h0.1l3.6-11.5h3.4l-5.3,14.9h-3.7L442.2,54.8z"/>
		<path class="st0" d="M458.1,49.1h3.3v3.1h-3.3V49.1z M458.1,54.8h3.3v14.9h-3.3V54.8z"/>
		<path class="st0" d="M464.2,54.8h3.1V57l0.1,0.1c0.5-0.8,1.2-1.5,2-1.9c0.8-0.5,1.7-0.7,2.7-0.7c1.6,0,2.9,0.4,3.9,1.3
			c0.9,0.8,1.4,2.1,1.4,3.8v10.2H474v-9.4c0-1.2-0.3-2-0.8-2.6c-0.5-0.5-1.2-0.8-2.2-0.8c-0.6,0-1.1,0.1-1.5,0.3
			c-0.4,0.2-0.8,0.5-1.1,0.8c-0.3,0.4-0.5,0.8-0.7,1.3c-0.2,0.5-0.3,1-0.3,1.5v8.8h-3.3V54.8z"/>
		<path class="st0" d="M493.9,68.9c0,2.3-0.6,3.9-1.9,5c-1.3,1.1-3.1,1.7-5.4,1.7c-0.8,0-1.5-0.1-2.3-0.2c-0.8-0.2-1.5-0.4-2.1-0.8
			c-0.6-0.4-1.2-0.8-1.6-1.4c-0.4-0.6-0.7-1.3-0.8-2.2h3.3c0.1,0.5,0.3,0.8,0.5,1.1c0.2,0.3,0.5,0.5,0.8,0.7
			c0.3,0.2,0.7,0.3,1.1,0.3c0.4,0,0.8,0.1,1.2,0.1c1.3,0,2.3-0.3,2.9-1c0.6-0.7,0.9-1.6,0.9-2.8v-2.3h-0.1c-0.5,0.8-1.1,1.5-1.9,1.9
			c-0.8,0.5-1.7,0.7-2.6,0.7c-1.2,0-2.2-0.2-3-0.6c-0.8-0.4-1.5-1-2.1-1.7s-0.9-1.6-1.2-2.5c-0.3-0.9-0.4-2-0.4-3c0-1,0.2-2,0.5-2.9
			c0.3-0.9,0.8-1.7,1.3-2.4c0.6-0.7,1.3-1.2,2.1-1.6c0.8-0.4,1.8-0.6,2.8-0.6c0.9,0,1.8,0.2,2.6,0.6c0.8,0.4,1.4,1,1.8,1.9h0.1v-2
			h3.3V68.9z M486.6,67.1c0.7,0,1.4-0.1,1.9-0.4c0.5-0.3,0.9-0.7,1.2-1.2c0.3-0.5,0.5-1,0.7-1.7c0.1-0.6,0.2-1.3,0.2-1.9
			s-0.1-1.3-0.2-1.8c-0.2-0.6-0.4-1.1-0.7-1.6c-0.3-0.5-0.7-0.8-1.2-1.1c-0.5-0.3-1.1-0.4-1.8-0.4c-0.7,0-1.3,0.2-1.8,0.5
			c-0.5,0.3-0.9,0.7-1.2,1.2c-0.3,0.5-0.5,1-0.7,1.7c-0.1,0.6-0.2,1.2-0.2,1.9c0,0.6,0.1,1.2,0.2,1.8c0.2,0.6,0.4,1.1,0.7,1.6
			c0.3,0.5,0.7,0.8,1.2,1.1C485.3,67,485.9,67.1,486.6,67.1z"/>
		<path class="st0" d="M499,64.9c0.1,1,0.5,1.6,1.1,2c0.6,0.4,1.4,0.6,2.3,0.6c0.3,0,0.7,0,1.1-0.1c0.4,0,0.8-0.1,1.1-0.3
			c0.3-0.1,0.6-0.3,0.9-0.6c0.2-0.3,0.3-0.6,0.3-1c0-0.4-0.2-0.8-0.5-1c-0.3-0.3-0.7-0.5-1.1-0.6c-0.5-0.2-1-0.3-1.5-0.4
			c-0.6-0.1-1.2-0.2-1.8-0.4c-0.6-0.1-1.2-0.3-1.8-0.5c-0.6-0.2-1.1-0.5-1.5-0.8c-0.5-0.3-0.8-0.7-1.1-1.3c-0.3-0.5-0.4-1.1-0.4-1.9
			c0-0.8,0.2-1.5,0.6-2c0.4-0.5,0.9-1,1.5-1.3c0.6-0.3,1.3-0.6,2-0.7c0.7-0.1,1.4-0.2,2.1-0.2c0.8,0,1.5,0.1,2.2,0.2
			c0.7,0.2,1.3,0.4,1.9,0.8c0.6,0.4,1,0.8,1.4,1.4c0.4,0.6,0.6,1.3,0.7,2.1h-3.4c-0.2-0.8-0.5-1.3-1.1-1.6c-0.6-0.3-1.2-0.4-1.9-0.4
			c-0.2,0-0.5,0-0.8,0.1c-0.3,0-0.6,0.1-0.9,0.2c-0.3,0.1-0.5,0.3-0.7,0.5c-0.2,0.2-0.3,0.5-0.3,0.8c0,0.4,0.1,0.7,0.4,1
			c0.3,0.3,0.6,0.5,1.1,0.6c0.5,0.2,1,0.3,1.5,0.4c0.6,0.1,1.2,0.2,1.8,0.4c0.6,0.1,1.2,0.3,1.8,0.5s1.1,0.5,1.5,0.8
			c0.5,0.3,0.8,0.7,1.1,1.2s0.4,1.1,0.4,1.8c0,0.9-0.2,1.6-0.6,2.3c-0.4,0.6-0.9,1.1-1.6,1.5c-0.6,0.4-1.4,0.7-2.2,0.8
			c-0.8,0.2-1.6,0.3-2.3,0.3c-0.9,0-1.8-0.1-2.6-0.3c-0.8-0.2-1.5-0.5-2.1-1c-0.6-0.4-1-1-1.4-1.6c-0.3-0.6-0.5-1.4-0.5-2.3H499z"/>
	</g>
	<g>
		<path class="st1" d="M38.8,37.3c-0.2-2-0.7-3.8-1.6-5.4c-0.9-1.6-2-2.8-3.4-3.9c-1.4-1-3-1.8-4.8-2.3c-1.8-0.5-3.8-0.8-5.9-0.8
			c-2.9,0-5.4,0.6-7.6,1.8c-2.2,1.2-4.1,2.7-5.6,4.7c-1.5,1.9-2.6,4.2-3.4,6.7c-0.8,2.5-1.2,5-1.2,7.7c0,3.1,0.4,6,1.1,8.6
			c0.7,2.6,1.8,4.9,3.3,6.9c1.5,1.9,3.4,3.5,5.6,4.5c2.2,1.1,4.8,1.6,7.8,1.6c2.2,0,4.1-0.4,6-1.1c1.8-0.7,3.4-1.7,4.9-3
			c1.4-1.3,2.6-2.8,3.5-4.5c0.9-1.8,1.5-3.7,1.8-5.8h3.4c-0.4,2.8-1.1,5.2-2.2,7.4c-1.1,2.2-2.6,4-4.3,5.4c-1.7,1.5-3.7,2.6-5.9,3.4
			c-2.2,0.8-4.6,1.2-7,1.2c-3.8,0-7-0.7-9.7-2C10.8,67,8.7,65.1,7,62.9C5.2,60.6,4,58,3.2,55C2.4,52,2,48.9,2,45.7
			c0-3.2,0.5-6.3,1.4-9.2c0.9-2.9,2.3-5.4,4.1-7.5c1.8-2.2,4-3.9,6.7-5.1c2.6-1.3,5.7-1.9,9.1-1.9c2.5,0,4.9,0.3,7.1,0.9
			c2.2,0.6,4.1,1.6,5.8,2.8c1.7,1.3,3.1,2.9,4.2,4.8c1.1,1.9,1.7,4.2,2,6.8H38.8z"/>
		<path class="st1" d="M23.2,71.3c-3.9,0-7.3-0.7-10.1-2.1c-2.8-1.4-5.1-3.3-6.9-5.7c-1.8-2.4-3.1-5.1-3.9-8.2C1.4,52.2,1,49,1,45.7
			c0-3.3,0.5-6.5,1.4-9.5c1-3,2.4-5.6,4.3-7.9c1.9-2.3,4.2-4.1,7-5.4c2.8-1.3,5.9-2,9.5-2c2.6,0,5.1,0.3,7.3,1
			c2.3,0.7,4.4,1.7,6.1,3c1.8,1.3,3.3,3.1,4.5,5.1c1.1,2.1,1.8,4.5,2.1,7.2l0.1,1.1h-5.4l-0.1-0.9c-0.2-1.9-0.7-3.6-1.5-5
			c-0.8-1.4-1.8-2.6-3.1-3.6c-1.3-0.9-2.8-1.7-4.5-2.2c-1.7-0.5-3.6-0.8-5.6-0.8c-2.7,0-5.1,0.6-7.2,1.6c-2.1,1.1-3.9,2.6-5.3,4.4
			c-1.4,1.9-2.5,4-3.3,6.4c-0.7,2.4-1.1,4.9-1.1,7.4c0,3,0.4,5.8,1,8.4c0.7,2.5,1.7,4.7,3.2,6.5c1.4,1.8,3.2,3.3,5.2,4.3
			c2.1,1,4.6,1.5,7.4,1.5c2,0,3.9-0.3,5.6-1c1.7-0.7,3.2-1.6,4.6-2.8c1.3-1.2,2.4-2.6,3.2-4.3c0.8-1.7,1.4-3.5,1.7-5.5l0.1-0.8h5.4
			l-0.1,1.1c-0.4,2.9-1.2,5.4-2.4,7.7c-1.2,2.3-2.7,4.2-4.5,5.7c-1.8,1.5-3.9,2.7-6.2,3.5C28.2,70.9,25.7,71.3,23.2,71.3z
			 M23.2,22.9c-3.3,0-6.2,0.6-8.7,1.8c-2.5,1.2-4.6,2.8-6.3,4.9c-1.7,2.1-3,4.5-3.9,7.2c-0.9,2.8-1.3,5.7-1.3,8.9
			c0,3.1,0.4,6.2,1.2,9c0.8,2.8,2,5.4,3.6,7.5c1.6,2.1,3.7,3.9,6.2,5.2c2.5,1.3,5.6,1.9,9.2,1.9c2.3,0,4.6-0.4,6.7-1.1
			c2.1-0.7,4-1.8,5.6-3.2c1.6-1.4,3-3.1,4.1-5.2c0.9-1.8,1.6-3.8,2-6h-1.5c-0.3,1.9-0.9,3.7-1.8,5.3c-0.9,1.9-2.2,3.5-3.7,4.8
			c-1.5,1.3-3.2,2.4-5.1,3.1c-1.9,0.8-4.1,1.1-6.3,1.1c-3.1,0-5.9-0.6-8.2-1.7c-2.3-1.1-4.3-2.8-5.9-4.8c-1.6-2-2.7-4.5-3.5-7.2
			c-0.7-2.7-1.1-5.7-1.1-8.9c0-2.7,0.4-5.4,1.2-8c0.8-2.6,2-4.9,3.6-7c1.6-2,3.6-3.7,5.9-4.9c2.3-1.2,5.1-1.9,8.1-1.9
			c2.2,0,4.3,0.3,6.2,0.8c1.9,0.6,3.6,1.4,5.1,2.5c1.5,1.1,2.7,2.5,3.6,4.2c0.8,1.4,1.3,3.1,1.6,4.9h1.5c-0.3-2-0.9-3.8-1.7-5.4
			c-1-1.8-2.3-3.3-3.9-4.5c-1.6-1.2-3.5-2.1-5.5-2.7C27.9,23.2,25.6,22.9,23.2,22.9z"/>
	</g>
	<g>
		<path class="st1" d="M81.3,60.1h-0.2c-0.5,1.4-1.3,2.7-2.3,3.9c-1,1.2-2.3,2.3-3.7,3.3c-1.5,1-3.1,1.7-5,2.2
			c-1.9,0.5-3.9,0.8-6.1,0.8c-4.9,0-8.7-1.1-11.4-3.2c-2.7-2.1-4-5.4-4-9.8c0-2.7,0.5-4.9,1.6-6.6c1.1-1.7,2.4-3.1,4.1-4
			c1.6-1,3.5-1.7,5.5-2.1c2-0.4,3.9-0.7,5.8-0.9l5.3-0.4c2.5-0.2,4.4-0.5,5.8-0.9c1.4-0.4,2.5-0.9,3.2-1.6c0.7-0.7,1.2-1.6,1.3-2.7
			c0.2-1.1,0.3-2.4,0.3-4c0-1.3-0.2-2.4-0.7-3.5c-0.5-1.1-1.2-2-2.2-2.9c-1-0.8-2.3-1.5-4-2c-1.6-0.5-3.6-0.7-5.9-0.7
			c-4.1,0-7.5,1-10,3.1c-2.5,2-3.9,5.1-4.2,9.3h-3.4c0.2-5.1,1.9-8.9,4.9-11.5c3-2.5,7.3-3.8,12.9-3.8s9.6,1.1,12.2,3.3
			c2.5,2.2,3.8,5,3.8,8.6v26.9c0,0.7,0,1.3,0,2c0,0.7,0.1,1.3,0.3,1.8c0.2,0.5,0.5,1,0.9,1.3c0.4,0.3,1,0.5,1.8,0.5
			c0.6,0,1.4-0.1,2.5-0.3v2.9c-0.9,0.2-1.8,0.4-2.8,0.4c-1.4,0-2.5-0.2-3.3-0.5c-0.8-0.4-1.4-0.8-1.8-1.4c-0.4-0.6-0.7-1.3-0.9-2.1
			c-0.2-0.8-0.2-1.7-0.2-2.7V60.1z M81.3,43c-0.8,1-2.1,1.7-3.8,2.1c-1.7,0.4-3.6,0.6-5.7,0.8L66,46.4c-1.7,0.2-3.4,0.4-5,0.8
			c-1.7,0.3-3.2,0.9-4.5,1.7c-1.3,0.8-2.4,1.8-3.3,3.2s-1.3,3.1-1.3,5.3c0,3.4,1.1,5.9,3.2,7.6c2.2,1.6,5.1,2.5,8.9,2.5
			c3.9,0,7-0.7,9.3-2.1c2.3-1.4,4-3,5.2-4.9c1.2-1.8,2-3.6,2.3-5.3c0.3-1.7,0.5-2.9,0.5-3.5V43z"/>
		<path class="st1" d="M64,71.3c-5.1,0-9.2-1.1-12-3.4c-2.9-2.3-4.4-5.9-4.4-10.6c0-2.9,0.6-5.3,1.8-7.1c1.2-1.8,2.6-3.3,4.4-4.4
			c1.7-1,3.7-1.8,5.8-2.2c2-0.4,4-0.7,5.9-0.9l5.3-0.5c2.4-0.2,4.3-0.5,5.6-0.8c1.2-0.3,2.2-0.8,2.8-1.4c0.6-0.5,0.9-1.2,1.1-2.1
			c0.2-1,0.3-2.3,0.3-3.9c0-1.1-0.2-2.2-0.6-3.1c-0.4-0.9-1.1-1.8-2-2.5c-0.9-0.8-2.1-1.4-3.6-1.8c-1.5-0.5-3.4-0.7-5.7-0.7
			c-3.9,0-7.1,1-9.4,2.8c-2.3,1.9-3.6,4.7-3.8,8.6l-0.1,0.9h-5.3l0-1c0.3-5.3,2-9.4,5.2-12.2c3.2-2.7,7.7-4,13.5-4
			c5.8,0,10.1,1.2,12.8,3.5c2.8,2.4,4.2,5.5,4.2,9.3v26.9c0,0.7,0,1.3,0,1.9c0,0.6,0.1,1.1,0.3,1.5c0.1,0.4,0.3,0.6,0.6,0.8
			c0.2,0.2,0.7,0.3,1.2,0.3c0.5,0,1.3-0.1,2.4-0.3l1.1-0.2v4.8l-0.7,0.2c-1,0.3-2,0.4-3,0.4c-1.5,0-2.7-0.2-3.7-0.6
			c-1-0.4-1.7-1-2.2-1.8c-0.5-0.7-0.8-1.5-1-2.5c-0.1-0.6-0.2-1.2-0.2-1.8c-0.3,0.4-0.5,0.7-0.8,1.1c-1.1,1.3-2.4,2.5-3.9,3.5
			c-1.5,1-3.3,1.8-5.2,2.4C68.4,71,66.3,71.3,64,71.3z M68.6,24c2.4,0,4.5,0.3,6.2,0.8c1.7,0.5,3.2,1.2,4.3,2.2c1.1,0.9,2,2,2.5,3.2
			c0.5,1.2,0.8,2.5,0.8,3.9c0,1.7-0.1,3.1-0.3,4.2c-0.2,1.3-0.8,2.4-1.6,3.2c-0.8,0.8-2,1.4-3.6,1.9c-1.5,0.4-3.4,0.7-6,0.9
			l-5.3,0.4c-1.8,0.2-3.7,0.5-5.7,0.9c-1.9,0.4-3.6,1.1-5.2,2c-1.5,0.9-2.8,2.2-3.8,3.7c-1,1.5-1.5,3.6-1.5,6.1
			c0,4.2,1.2,7.1,3.7,9.1c2.5,2,6.2,3,10.8,3c2.1,0,4.1-0.3,5.8-0.8c1.8-0.5,3.4-1.2,4.7-2.1c1.4-0.9,2.6-1.9,3.5-3.1
			c0.9-1.1,1.7-2.4,2.2-3.6l0.2-0.6h1.8v3.4c0,0.9,0.1,1.7,0.2,2.5c0.1,0.7,0.4,1.3,0.7,1.7c0.3,0.5,0.8,0.8,1.4,1.1
			c0.7,0.3,1.7,0.5,2.9,0.5c0.6,0,1.2-0.1,1.8-0.2v-1c-0.6,0.1-1.1,0.1-1.6,0.1c-1,0-1.8-0.2-2.4-0.7c-0.6-0.4-1-1-1.2-1.8
			c-0.2-0.6-0.3-1.3-0.4-2.1c0-0.7,0-1.3,0-2V33.8c0-3.3-1.1-5.8-3.5-7.9c-2.4-2-6.2-3-11.6-3c-5.3,0-9.4,1.2-12.3,3.6
			c-2.6,2.2-4.1,5.5-4.5,9.8h1.5c0.4-4,1.9-7,4.5-9C60.7,25.1,64.2,24,68.6,24z M64.1,68.3c-4,0-7.2-0.9-9.5-2.7
			C52.2,63.8,51,61,51,57.3c0-2.3,0.5-4.3,1.4-5.8c0.9-1.5,2.1-2.7,3.6-3.5c1.4-0.8,3.1-1.4,4.8-1.8c1.7-0.3,3.4-0.6,5.1-0.8
			l5.8-0.5c2.1-0.2,3.9-0.4,5.6-0.8c1.5-0.3,2.6-0.9,3.3-1.7l1.7-2.1v11.3c0,0.7-0.2,1.8-0.5,3.6c-0.4,1.8-1.2,3.7-2.4,5.7
			c-1.3,1.9-3.1,3.7-5.5,5.1C71.4,67.6,68.1,68.3,64.1,68.3z M80.4,45c-0.8,0.4-1.6,0.8-2.7,1c-1.7,0.4-3.7,0.6-5.8,0.8l-5.7,0.5
			c-1.6,0.2-3.3,0.4-4.9,0.7c-1.6,0.3-3,0.8-4.2,1.6c-1.2,0.7-2.2,1.7-2.9,2.9c-0.7,1.2-1.1,2.8-1.1,4.7c0,3.1,0.9,5.4,2.9,6.8
			c2,1.5,4.8,2.3,8.3,2.3c3.7,0,6.6-0.7,8.8-2c2.1-1.3,3.8-2.9,4.9-4.6c1.1-1.7,1.8-3.4,2.2-5c0.4-2.1,0.5-2.9,0.5-3.3V45z"/>
	</g>
	<g>
		<path class="st1" d="M99,33.3h0.3c0.4-1.5,1.2-2.9,2.3-4.2c1.1-1.3,2.5-2.5,4-3.4c1.6-1,3.4-1.7,5.3-2.2c1.9-0.5,4-0.7,6.1-0.7
			v3.4c-1.8-0.2-3.9-0.1-6.2,0.5c-2.3,0.6-4.5,1.9-6.6,4c-0.8,0.9-1.6,1.8-2.2,2.6c-0.6,0.8-1.2,1.8-1.6,2.8c-0.4,1-0.7,2.2-1,3.4
			c-0.2,1.3-0.4,2.8-0.4,4.5v25.3h-3.4V23.1H99V33.3z"/>
		<path class="st1" d="M100,70.2h-5.3V22.1h5.3v7.5c0.3-0.4,0.5-0.8,0.9-1.1c1.2-1.4,2.6-2.6,4.3-3.6c1.7-1,3.5-1.8,5.6-2.3
			c2-0.5,4.2-0.8,6.3-0.7l0.9,0v5.5l-1.1-0.1c-1.7-0.2-3.6,0-5.8,0.5c-2.1,0.6-4.2,1.8-6.2,3.7c-0.8,0.8-1.5,1.7-2.1,2.5
			c-0.6,0.8-1.1,1.6-1.5,2.6c-0.4,1-0.7,2-0.9,3.2c-0.2,1.2-0.4,2.7-0.4,4.3L100,70.2z M96.6,68.3h1.5V44c0.1-1.8,0.2-3.4,0.5-4.7
			c0.2-1.3,0.6-2.5,1-3.6c0.4-1.1,1-2.1,1.7-3c0.6-0.9,1.4-1.8,2.3-2.7c2.2-2.2,4.6-3.6,7.1-4.2c2-0.5,3.8-0.7,5.4-0.7v-1.4
			c-1.7,0-3.3,0.2-4.9,0.6c-1.8,0.5-3.5,1.2-5,2.1c-1.5,0.9-2.8,2-3.8,3.2c-1,1.2-1.7,2.5-2.1,3.9l-0.2,0.7h-2V24h-1.5V68.3z"/>
	</g>
	<path class="st0" d="M155.1,82.4c-3.5,3.8-8.9,5.7-16.4,5.7c-2.2,0-4.4-0.2-6.6-0.7c-2.2-0.5-4.3-1.3-6.1-2.3
		c-1.8-1.1-3.3-2.5-4.5-4.2c-1.2-1.7-1.9-3.9-2-6.4h7.6c0.1,1.4,0.5,2.5,1.3,3.5c0.8,1,1.8,1.7,3,2.3c1.2,0.6,2.4,1,3.8,1.3
		c1.4,0.3,2.7,0.4,4,0.4c2.5,0,4.6-0.4,6.4-1.3c1.7-0.9,3.2-2.1,4.3-3.6c1.1-1.5,2-3.4,2.5-5.5c0.5-2.2,0.8-4.5,0.8-7.1v-3.1h-0.2
		c-1.3,2.9-3.3,5-6,6.3c-2.7,1.3-5.5,2-8.5,2c-3.5,0-6.5-0.6-9.1-1.9c-2.6-1.3-4.7-3-6.5-5.1c-1.7-2.1-3-4.6-3.9-7.5
		c-0.9-2.8-1.3-5.9-1.3-9c0-2.8,0.4-5.6,1.1-8.5c0.7-2.9,1.9-5.5,3.6-7.9c1.7-2.4,3.9-4.3,6.7-5.8c2.8-1.5,6.1-2.3,10.2-2.3
		c2.9,0,5.6,0.6,8.1,1.9c2.5,1.3,4.4,3.2,5.8,5.8h0.1v-6.7h7.2v42.5C160.3,72.9,158.5,78.6,155.1,82.4z M145.3,61.5
		c1.8-1,3.2-2.4,4.3-4.1c1.1-1.7,1.9-3.6,2.4-5.8c0.5-2.2,0.8-4.3,0.8-6.5c0-2-0.2-4-0.7-6c-0.5-2-1.2-3.8-2.3-5.3
		c-1-1.6-2.4-2.9-4.1-3.8c-1.7-1-3.7-1.4-6.1-1.4c-2.5,0-4.6,0.5-6.3,1.4c-1.7,0.9-3.2,2.2-4.3,3.7c-1.1,1.6-1.9,3.4-2.4,5.4
		c-0.5,2-0.8,4.2-0.8,6.4c0,2.1,0.2,4.2,0.6,6.3c0.4,2.1,1.1,4,2.2,5.7c1,1.7,2.4,3.1,4,4.1c1.7,1,3.8,1.6,6.3,1.6
		S143.5,62.5,145.3,61.5z"/>
	<path class="st0" d="M169.4,14.4V5.1h7.6v9.3H169.4z M177.1,22.8v46.5h-7.6V22.8H177.1z"/>
	<path class="st0" d="M227.9,69.1c-1.3,0.8-3.1,1.2-5.5,1.2c-2,0-3.6-0.6-4.7-1.7c-1.2-1.1-1.8-2.9-1.8-5.4
		c-2.1,2.5-4.5,4.3-7.3,5.4c-2.8,1.1-5.8,1.7-9,1.7c-2.1,0-4.1-0.2-6-0.7c-1.9-0.5-3.5-1.2-4.9-2.2c-1.4-1-2.5-2.4-3.3-4
		c-0.8-1.6-1.2-3.6-1.2-6c0-2.6,0.4-4.8,1.3-6.5c0.9-1.7,2.1-3,3.6-4.1c1.5-1,3.1-1.8,5-2.4c1.9-0.5,3.8-1,5.8-1.3
		c2.1-0.4,4.1-0.7,6-0.9c1.9-0.2,3.6-0.5,5-0.9c1.4-0.4,2.6-1,3.4-1.7c0.8-0.7,1.3-1.8,1.3-3.3c0-1.7-0.3-3-0.9-4
		c-0.6-1-1.4-1.8-2.4-2.3c-1-0.5-2.1-0.9-3.3-1.1c-1.2-0.2-2.4-0.3-3.6-0.3c-3.2,0-5.9,0.6-8.1,1.8c-2.2,1.2-3.3,3.6-3.5,7H186
		c0.1-2.9,0.7-5.3,1.8-7.3c1.1-2,2.5-3.6,4.3-4.8c1.8-1.2,3.8-2.1,6.2-2.7c2.3-0.5,4.8-0.8,7.4-0.8c2.1,0,4.2,0.1,6.2,0.4
		c2.1,0.3,3.9,0.9,5.6,1.8c1.7,0.9,3,2.2,4,3.9c1,1.7,1.5,3.9,1.5,6.5v23.9c0,1.8,0.1,3.1,0.3,3.9c0.2,0.8,0.9,1.3,2.1,1.3
		c0.7,0,1.4-0.1,2.3-0.4V69.1z M215.5,45.3c-1,0.7-2.2,1.2-3.8,1.6c-1.6,0.3-3.2,0.6-4.9,0.8c-1.7,0.2-3.4,0.4-5.2,0.7
		c-1.7,0.3-3.3,0.7-4.7,1.3c-1.4,0.6-2.5,1.4-3.4,2.5c-0.9,1.1-1.3,2.6-1.3,4.5c0,1.3,0.3,2.3,0.8,3.2c0.5,0.9,1.2,1.6,2,2.1
		c0.8,0.5,1.8,0.9,2.8,1.2c1.1,0.2,2.2,0.4,3.4,0.4c2.5,0,4.7-0.3,6.5-1c1.8-0.7,3.3-1.6,4.4-2.6c1.1-1,2-2.2,2.5-3.4
		c0.5-1.2,0.8-2.4,0.8-3.4V45.3z"/>
	<path class="st0" d="M239.9,22.8v7.4h0.2c3.2-5.6,8.2-8.4,15.1-8.4c3.1,0,5.6,0.4,7.6,1.3c2,0.8,3.7,2,4.9,3.5
		c1.3,1.5,2.1,3.3,2.7,5.3c0.5,2.1,0.8,4.4,0.8,6.9v30.6h-7.6V37.8c0-2.9-0.8-5.2-2.5-6.8c-1.7-1.7-4-2.5-6.9-2.5
		c-2.3,0-4.4,0.4-6.1,1.1c-1.7,0.7-3.1,1.7-4.3,3.1c-1.1,1.3-2,2.9-2.6,4.6c-0.6,1.8-0.9,3.7-0.9,5.8v26.2h-7.6V22.8H239.9z"/>
	<path class="st0" d="M300.2,22.8v6.7h-9.3v28.9c0,0.9,0.1,1.6,0.2,2.2c0.1,0.5,0.4,1,0.9,1.3c0.4,0.3,1,0.5,1.8,0.6
		c0.7,0.1,1.7,0.1,2.9,0.1h3.5v6.7h-5.8c-2,0-3.7-0.1-5.1-0.4c-1.4-0.3-2.5-0.8-3.4-1.5c-0.9-0.7-1.5-1.7-1.9-3.1
		c-0.4-1.3-0.6-3.1-0.6-5.2V29.5h-7.9v-6.7h7.9V8.9h7.6v13.9H300.2z"/>
</g>
</svg>
